<svg xmlns="http://www.w3.org/2000/svg" viewBox="0 0 64 64" width="512px" height="512px"><path fill="#f6d397" d="M12.568,5c0.486,0,0.983,0.075,1.465,0.22l38.753,12.176c2.52,0.792,4.213,3.099,4.213,5.74v27.017 c0,2.665-2.159,4.834-4.813,4.834c-0.472,0-0.946-0.071-1.408-0.211C35.61,50.183,12.31,42.768,8,41.394V9.599 c0-1.531,0.688-2.868,1.888-3.668l0.03-0.02l0.029-0.022C10.705,5.299,11.587,5,12.568,5"/><path fill="#faefde" d="M12.486,10.066c0.486-0.002,0.983,0.072,1.466,0.215l38.793,12.049 c2.523,0.784,4.223,3.085,4.232,5.726l0.089,22.017c0.009,2.665-2.143,4.841-4.797,4.85c-0.472,0.002-0.946-0.068-1.408-0.206 C35.676,50.173,12.352,42.834,8.038,41.475L7.933,14.68c-0.005-1.531,0.679-2.87,1.876-3.674l0.03-0.02l0.029-0.023 C10.624,10.371,11.505,10.069,12.486,10.066"/><path fill="#ffeb9b" d="M12.486,10.066c0.486-0.002,0.983,0.072,1.466,0.215l38.793,12.049 c2.523,0.784,4.223,3.085,4.232,5.726l0.089,17.017c0.009,2.665-2.143,4.841-4.797,4.85c-0.472,0.002-0.946-0.068-1.408-0.206 C35.676,45.173,12.352,37.834,8.038,36.475L7.933,14.68c-0.005-1.531,0.679-2.87,1.876-3.674l0.03-0.02l0.029-0.023 C10.624,10.371,11.505,10.069,12.486,10.066"/><path fill="#8d6c9f" d="M49 48c0-.552-.448-1-1-1h-2c-.552 0-1 .448-1 1s.448 1 1 1h2C48.552 49 49 48.552 49 48zM49 43c0-.552-.448-1-1-1h-2c-.552 0-1 .448-1 1s.448 1 1 1h2C48.552 44 49 43.552 49 43zM49 38c0-.552-.448-1-1-1h-2c-.552 0-1 .448-1 1s.448 1 1 1h2C48.552 39 49 38.552 49 38zM49 33c0-.552-.448-1-1-1h-2c-.552 0-1 .448-1 1s.448 1 1 1h2C48.552 34 49 33.552 49 33zM49 28c0-.552-.448-1-1-1h-2c-.552 0-1 .448-1 1s.448 1 1 1h2C48.552 29 49 28.552 49 28zM49 23c0-.552-.448-1-1-1h-2c-.552 0-1 .448-1 1s.448 1 1 1h2C48.552 24 49 23.552 49 23z"/><path fill="#8b8e98" d="M8.5 35c1.379 0 2.5 1.121 2.5 2.5v8c0 1.379-1.121 2.5-2.5 2.5S6 46.879 6 45.5v-8C6 36.121 7.121 35 8.5 35M18.5 32c1.379 0 2.5 1.121 2.5 2.5v15c0 1.379-1.121 2.5-2.5 2.5S16 50.879 16 49.5v-15C16 33.121 17.121 32 18.5 32M28.5 28c1.379 0 2.5 1.121 2.5 2.5v23c0 1.379-1.121 2.5-2.5 2.5S26 54.879 26 53.5v-23C26 29.121 27.121 28 28.5 28M38.5 24c1.379 0 2.5 1.121 2.5 2.5v30c0 1.379-1.121 2.5-2.5 2.5S36 57.879 36 56.5v-30C36 25.121 37.121 24 38.5 24"/><path fill="#8d6c9f" d="M8.5 36c.827 0 1.5.673 1.5 1.5v8c0 .827-.673 1.5-1.5 1.5S7 46.327 7 45.5v-8C7 36.673 7.673 36 8.5 36M8.5 34C6.567 34 5 35.567 5 37.5v8C5 47.433 6.567 49 8.5 49s3.5-1.567 3.5-3.5v-8C12 35.567 10.433 34 8.5 34L8.5 34zM18.5 33c.827 0 1.5.673 1.5 1.5v15c0 .827-.673 1.5-1.5 1.5S17 50.327 17 49.5v-15C17 33.673 17.673 33 18.5 33M18.5 31c-1.933 0-3.5 1.567-3.5 3.5v15c0 1.933 1.567 3.5 3.5 3.5s3.5-1.567 3.5-3.5v-15C22 32.567 20.433 31 18.5 31L18.5 31zM28.5 29c.827 0 1.5.673 1.5 1.5v23c0 .827-.673 1.5-1.5 1.5S27 54.327 27 53.5v-23C27 29.673 27.673 29 28.5 29M28.5 27c-1.933 0-3.5 1.567-3.5 3.5v23c0 1.933 1.567 3.5 3.5 3.5s3.5-1.567 3.5-3.5v-23C32 28.567 30.433 27 28.5 27L28.5 27zM38.5 25c.827 0 1.5.673 1.5 1.5v30.065c0 .827-.673 1.5-1.5 1.5s-1.5-.673-1.5-1.5V26.5C37 25.673 37.673 25 38.5 25M38.5 23c-1.933 0-3.5 1.567-3.5 3.5v30.065c0 1.933 1.567 3.5 3.5 3.5s3.5-1.567 3.5-3.5V26.5C42 24.567 40.433 23 38.5 23L38.5 23z"/><path fill="#8d6c9f" d="M53.086,16.455L14.333,4.278c-0.575-0.173-1.171-0.266-1.765-0.266c-1.128,0-2.253,0.335-3.235,1.099 C7.833,6.112,7,7.778,7,9.612v21.401c0,0.552,0.448,1,1,1s1-0.448,1-1V9.612c0-1.191,0.526-2.225,1.443-2.836l0.061-0.041 l0.058-0.045c0.578-0.45,1.254-0.678,2.007-0.678c0.389,0,0.789,0.061,1.166,0.174l38.753,12.177C54.578,19.02,56,20.958,56,23.149 v27.017C56,52.28,54.289,54,52.187,54c-0.374,0-0.75-0.057-1.118-0.168c-1.82-0.551-3.761-1.145-5.771-1.762 C44.655,51.872,44,52.351,44,53.024v0c0,0.439,0.29,0.828,0.71,0.957c2.009,0.618,3.953,1.212,5.779,1.765 c0.57,0.172,1.14,0.254,1.698,0.254C55.291,56,58,53.481,58,50.166V23.149C58,20.084,56.011,17.374,53.086,16.455z"/></svg>