<svg id="Layer_1_1_" enable-background="new 0 0 64 64" height="512" viewBox="0 0 64 64" width="512" xmlns="http://www.w3.org/2000/svg"><path d="m49 56v7c-1.38 0-2.63-.56-3.54-1.46-.9-.91-1.46-2.16-1.46-3.54v-2z" fill="#f69489"/><path d="m53 50v3c0 2.21-1.79 4-4 4h-8c-2.21 0-4-1.79-4-4v-3z" fill="#f69489"/><path d="m16 32h-2v-3.586l-9-9v-6.414h2v5.586l9 9z" fill="#68607c"/><path d="m12.707 25.707-1.414-1.414 5.707-5.707v-9.586h2v10.414z" fill="#68607c"/><path d="m27 17h2v12h-2z" fill="#68607c"/><path d="m37 29h-2v-6.414l4-4v-7.586h2v8.414l-4 4z" fill="#68607c"/><path d="m54 40h-2v-18.586l-2-2-2 2v11.586h-2v-12.414l4-4 4 4z" fill="#68607c"/><path d="m49 9h2v9h-2z" fill="#68607c"/><path d="m53.707 28.707-1.414-1.414 4.707-4.707v-6.586h2v7.414z" fill="#68607c"/><path d="m5 44h-2v-19.414l4.293-4.293 1.414 1.414-3.707 3.707z" fill="#68607c"/><path d="m23 31h-2v-11.586l-3.707-3.707 1.414-1.414 4.293 4.293z" fill="#68607c"/><path d="m54 37c0-3.866-3.134-7-7-7-.988 0-1.926.207-2.778.576-1.284-2.703-4.031-4.576-7.222-4.576-1.893 0-3.63.661-5 1.76-1.37-1.099-3.107-1.76-5-1.76-3.191 0-5.938 1.873-7.222 4.576-.852-.369-1.79-.576-2.778-.576-3.866 0-7 3.134-7 7-3.866 0-7 3.134-7 7s3.134 7 7 7h44c3.866 0 7-3.134 7-7s-3.134-7-7-7z" fill="#ffd086"/><circle cx="28" cy="14" fill="#91cbd7" r="4"/><circle cx="18" cy="6" fill="#91cbd7" r="4"/><circle cx="6" cy="10" fill="#91cbd7" r="4"/><path d="m37 51h16v2h-16z" fill="#ed6571"/><path d="m44 58c0 .342.035.677.101 1h4.899v-2h-5z" fill="#ed6571"/><circle cx="58" cy="13" fill="#91cbd7" r="4"/><circle cx="50" cy="6" fill="#91cbd7" r="4"/><circle cx="40" cy="8" fill="#91cbd7" r="4"/><g fill="#f69489"><path d="m34 42v-2c-2.697 0-4.983 1.789-5.736 4.243-1.236-.783-2.696-1.243-4.264-1.243v2c3.309 0 6 2.691 6 6h2c0-2.008-.749-3.84-1.975-5.246.13-2.09 1.854-3.754 3.975-3.754z"/><path d="m14.243 39.757c-2.34-2.34-6.146-2.34-8.485 0l-1.414-1.414c3.119-3.119 8.194-3.119 11.313 0z"/><path d="m51.243 32.757c-2.34-2.34-6.146-2.34-8.485 0l-1.414-1.414c3.119-3.119 8.194-3.119 11.313 0z"/><path d="m21.243 32.757c-2.34-2.34-6.146-2.34-8.485 0l-1.414-1.414c3.119-3.119 8.194-3.119 11.313 0z"/><path d="m42 39h-2c0-2.757-2.243-5-5-5v-2c3.86 0 7 3.141 7 7z"/><path d="m49 43v-2c-2.15 0-3.971 1.371-4.676 3.279-1.248-.806-2.731-1.279-4.324-1.279v2c3.309 0 6 2.691 6 6h2c0-2.008-.749-3.84-1.975-5.246.128-1.538 1.405-2.754 2.975-2.754z"/><path d="m31 36h-2c0-1.654-1.346-3-3-3v-2c2.757 0 5 2.243 5 5z"/><path d="m22 41h-2c0-2.757 2.243-5 5-5v2c-1.654 0-3 1.346-3 3z"/><path d="m31.219 30.053-1.651-1.129c1.355-1.984 3.403-3.323 5.766-3.769 2.364-.441 4.757.057 6.742 1.412l-1.128 1.652c-1.544-1.055-3.406-1.448-5.244-1.099-1.837.347-3.43 1.388-4.485 2.933z"/><path d="m12 43h2v2h-2z"/><path d="m16 43h2v2h-2z"/><path d="m20 43h2v2h-2z"/></g></svg>