<?xml version="1.0" standalone="no"?>
<!DOCTYPE svg PUBLIC "-//W3C//DTD SVG 20010904//EN"
 "http://www.w3.org/TR/2001/REC-SVG-20010904/DTD/svg10.dtd">
<svg version="1.0" xmlns="http://www.w3.org/2000/svg"
 width="703.000000pt" height="294.000000pt" viewBox="0 0 703.000000 294.000000"
 preserveAspectRatio="xMidYMid meet">
<metadata>
Created by potrace 1.15, written by Peter Selinger 2001-2017
</metadata>
<g transform="translate(0.000000,294.000000) scale(0.100000,-0.100000)"
fill="#000000" stroke="none">
<path d="M1906 1979 c58 -60 74 -88 85 -139 l7 -35 1 33 c1 37 14 40 69 16 21
-9 52 -22 71 -30 32 -14 33 -16 15 -30 -11 -9 -13 -13 -6 -9 13 7 17 -15 5
-31 -5 -5 1 1 12 13 12 13 24 23 29 23 15 0 77 -53 69 -60 -10 -8 -150 -57
-178 -62 -11 -2 -22 -5 -25 -9 -9 -9 -99 -41 -126 -44 -24 -2 -24 -2 -7 19 10
11 22 24 27 28 5 3 11 15 12 25 2 14 -2 12 -14 -7 -9 -14 -44 -54 -77 -89
l-60 -63 90 45 c157 78 278 119 505 171 117 27 105 34 -17 11 -43 -8 -80 -15
-82 -15 -1 0 11 16 28 35 17 19 38 49 46 65 14 27 18 29 37 19 11 -6 40 -29
64 -51 24 -22 44 -36 44 -31 0 20 -102 105 -153 127 -67 29 -116 41 -314 76
-88 16 -172 34 -185 40 -14 8 -3 -9 28 -41z"/>
<path d="M2695 1765 c-53 -19 -75 -48 -75 -97 0 -56 13 -73 91 -124 40 -25 74
-55 79 -69 11 -30 -1 -70 -25 -79 -29 -11 -85 -7 -114 9 -31 16 -41 12 -41
-17 0 -27 45 -40 119 -36 54 4 67 8 87 32 58 67 39 123 -68 193 -64 42 -73 52
-76 81 -5 46 20 72 69 72 21 0 49 -4 63 -10 23 -9 26 -7 26 15 0 29 -3 31 -55
39 -24 3 -56 0 -80 -9z"/>
<path d="M3036 1769 c-54 -13 -105 -54 -127 -103 -23 -51 -25 -152 -4 -204 28
-65 86 -112 140 -112 18 0 39 -15 72 -50 35 -38 53 -50 76 -50 l30 0 -42 45
c-22 24 -41 46 -41 49 0 2 19 15 43 29 66 39 92 93 92 194 0 74 -3 85 -30 124
-47 67 -128 97 -209 78z m140 -70 c37 -33 54 -79 54 -141 0 -66 -24 -115 -70
-146 -29 -20 -44 -23 -88 -20 -85 7 -132 65 -132 162 0 82 31 143 85 167 38
17 123 4 151 -22z"/>
<path d="M3755 1765 c-50 -18 -74 -50 -75 -98 0 -55 13 -73 90 -122 38 -24 74
-53 80 -64 14 -26 3 -69 -20 -81 -28 -15 -87 -12 -120 5 -30 16 -30 15 -30
-14 0 -27 4 -31 36 -37 99 -18 177 15 190 81 9 50 -18 89 -99 142 -65 44 -72
51 -75 85 -2 28 2 40 20 52 25 18 90 21 119 6 16 -9 19 -7 19 14 0 30 -3 32
-55 40 -24 3 -56 0 -80 -9z"/>
<path d="M3350 1560 l0 -210 105 0 105 0 0 25 c0 25 -1 25 -85 25 l-85 0 0
185 c0 178 -1 185 -20 185 -19 0 -20 -7 -20 -210z"/>
<path d="M4035 1646 c-66 -30 -100 -104 -86 -183 16 -83 52 -113 136 -113 66
0 95 13 95 41 0 17 -3 18 -21 8 -12 -6 -41 -11 -66 -12 -50 0 -86 27 -97 76
l-6 27 105 0 105 0 0 41 c0 92 -85 152 -165 115z"/>
<path d="M4800 1642 c-52 -26 -80 -74 -80 -139 0 -105 44 -153 140 -153 60 0
90 13 90 39 0 17 -3 18 -40 5 -21 -8 -53 -11 -70 -8 -36 8 -70 47 -70 80 0 24
1 24 106 24 l107 0 -7 41 c-10 61 -33 99 -71 115 -45 18 -63 18 -105 -4z"/>
<path d="M4260 1500 c0 -140 1 -150 19 -150 16 0 19 11 23 105 4 93 7 108 28
130 14 15 35 25 52 25 21 0 28 5 28 20 0 30 -48 26 -82 -7 l-28 -27 0 27 c0
20 -5 27 -20 27 -19 0 -20 -7 -20 -150z"/>
<path d="M4430 1646 c0 -2 24 -68 54 -147 48 -129 56 -144 78 -144 20 0 30 16
80 140 32 77 57 143 58 148 0 4 -10 7 -23 7 -19 0 -28 -15 -67 -125 -25 -69
-47 -120 -49 -113 -2 7 -22 64 -43 126 -36 100 -43 112 -64 112 -13 0 -24 -2
-24 -4z"/>
<path d="M5030 1499 c0 -150 0 -150 23 -147 21 3 22 8 27 110 6 119 20 148 72
148 21 0 28 5 28 20 0 28 -50 27 -76 -1 l-18 -20 -8 20 c-4 12 -16 21 -28 21
-19 0 -20 -6 -20 -151z"/>
</g>
</svg>
